REM DIRINDEX 1\2\4\8,1\2\4\9,1\2\4\10,1\2\5\11,1\2\5\12,1\2\5\13,1\2\5\14,1\2\5\15,1\3\6\16,1\3\6\17,1\3\6\18,1\3\7\19,1\3\7\20,1\3\7\21,1\3\7\22,1\3\7\23
REM DIRNAME "folder01","folder02","folder03","folder04","folder05","folder06","folder07","folder08","folder09","folder10","folder11","folder12","folder13","folder14","folder15","folder16","folder17","folder18","folder19","folder20","folder21","folder22","folder23"
TITLE ""
FILE "LR_black_phrase_S05.mp3" MP3
  TRACK 01 AUDIO
    TITLE "0:"
    INDEX 01 00:00:00
  TRACK 02 AUDIO
    TITLE "19:cjc171_15401"
    INDEX 01 00:00:14
  TRACK 03 AUDIO
    TITLE "0:"
    INDEX 01 00:01:33
  TRACK 04 AUDIO
    TITLE "20:cjc171_15402"
    INDEX 01 00:01:72
  TRACK 05 AUDIO
    TITLE "0:"
    INDEX 01 00:03:36
  TRACK 06 AUDIO
    TITLE "21:cjc171_15403"
    INDEX 01 00:04:37
  TRACK 07 AUDIO
    TITLE "0:"
    INDEX 01 00:06:68
  TRACK 08 AUDIO
    TITLE "22:cjc171_15404"
    INDEX 01 00:07:32
  TRACK 09 AUDIO
    TITLE "0:"
    INDEX 01 00:09:11
  TRACK 10 AUDIO
    TITLE "23:cjc171_15405"
    INDEX 01 00:09:43
  TRACK 11 AUDIO
    TITLE "0:"
    INDEX 01 00:11:22
  TRACK 12 AUDIO
    TITLE "19:cjc171_15406"
    INDEX 01 00:12:25
  TRACK 13 AUDIO
    TITLE "0:"
    INDEX 01 00:13:31
  TRACK 14 AUDIO
    TITLE "20:cjc171_15407"
    INDEX 01 00:13:70
  TRACK 15 AUDIO
    TITLE "0:"
    INDEX 01 00:15:12
  TRACK 16 AUDIO
    TITLE "21:cjc171_15408"
    INDEX 01 00:16:11
  TRACK 17 AUDIO
    TITLE "0:"
    INDEX 01 00:18:34
  TRACK 18 AUDIO
    TITLE "22:cjc171_15409"
    INDEX 01 00:18:71
  TRACK 19 AUDIO
    TITLE "0:"
    INDEX 01 00:21:34
  TRACK 20 AUDIO
    TITLE "23:cjc171_15410"
    INDEX 01 00:21:65
  TRACK 21 AUDIO
    TITLE "0:"
    INDEX 01 00:24:26
  TRACK 22 AUDIO
    TITLE "19:cjc171_15411"
    INDEX 01 00:25:26
  TRACK 23 AUDIO
    TITLE "0:"
    INDEX 01 00:26:57
  TRACK 24 AUDIO
    TITLE "20:cjc171_15412"
    INDEX 01 00:27:19
  TRACK 25 AUDIO
    TITLE "0:"
    INDEX 01 00:28:54
  TRACK 26 AUDIO
    TITLE "21:cjc171_15413"
    INDEX 01 00:29:51
  TRACK 27 AUDIO
    TITLE "0:"
    INDEX 01 00:31:52
  TRACK 28 AUDIO
    TITLE "22:cjc171_15414"
    INDEX 01 00:32:12
  TRACK 29 AUDIO
    TITLE "0:"
    INDEX 01 00:34:11
  TRACK 30 AUDIO
    TITLE "23:cjc171_15415"
    INDEX 01 00:34:29
  TRACK 31 AUDIO
    TITLE "0:"
    INDEX 01 00:36:30
  TRACK 32 AUDIO
    TITLE "19:cjc171_15416"
    INDEX 01 00:37:23
  TRACK 33 AUDIO
    TITLE "0:"
    INDEX 01 00:38:44
  TRACK 34 AUDIO
    TITLE "20:cjc171_15417"
    INDEX 01 00:39:04
  TRACK 35 AUDIO
    TITLE "0:"
    INDEX 01 00:41:68
  TRACK 36 AUDIO
    TITLE "21:cjc171_15418"
    INDEX 01 00:43:02
  TRACK 37 AUDIO
    TITLE "0:"
    INDEX 01 00:45:56
  TRACK 38 AUDIO
    TITLE "22:cjc171_15419"
    INDEX 01 00:46:14
  TRACK 39 AUDIO
    TITLE "0:"
    INDEX 01 00:48:33
  TRACK 40 AUDIO
    TITLE "23:cjc171_15420"
    INDEX 01 00:48:52
  TRACK 41 AUDIO
    TITLE "0:"
    INDEX 01 00:50:71
  TRACK 42 AUDIO
    TITLE "19:cjc171_15421"
    INDEX 01 00:51:70
  TRACK 43 AUDIO
    TITLE "0:"
    INDEX 01 00:53:07
  TRACK 44 AUDIO
    TITLE "20:cjc171_15422"
    INDEX 01 00:53:48
  TRACK 45 AUDIO
    TITLE "0:"
    INDEX 01 00:56:01
  TRACK 46 AUDIO
    TITLE "21:cjc171_15423"
    INDEX 01 00:56:73
  TRACK 47 AUDIO
    TITLE "0:"
    INDEX 01 00:59:13
  TRACK 48 AUDIO
    TITLE "22:cjc171_15424"
    INDEX 01 00:59:52
  TRACK 49 AUDIO
    TITLE "0:"
    INDEX 01 01:01:67
  TRACK 50 AUDIO
    TITLE "23:cjc171_15425"
    INDEX 01 01:02:19
  TRACK 51 AUDIO
    TITLE "0:"
    INDEX 01 01:04:34
  TRACK 52 AUDIO
    TITLE "19:cjc171_15426"
    INDEX 01 01:05:37
  TRACK 53 AUDIO
    TITLE "0:"
    INDEX 01 01:06:54
  TRACK 54 AUDIO
    TITLE "20:cjc171_15427"
    INDEX 01 01:07:20
  TRACK 55 AUDIO
    TITLE "0:"
    INDEX 01 01:10:09
  TRACK 56 AUDIO
    TITLE "21:cjc171_15428"
    INDEX 01 01:11:08
  TRACK 57 AUDIO
    TITLE "0:"
    INDEX 01 01:13:33
  TRACK 58 AUDIO
    TITLE "22:cjc171_15429"
    INDEX 01 01:13:72
  TRACK 59 AUDIO
    TITLE "0:"
    INDEX 01 01:16:04
  TRACK 60 AUDIO
    TITLE "23:cjc171_15430"
    INDEX 01 01:16:35
  TRACK 61 AUDIO
    TITLE "0:"
    INDEX 01 01:18:42
  TRACK 62 AUDIO
    TITLE "19:cjc171_15431"
    INDEX 01 01:19:41
  TRACK 63 AUDIO
    TITLE "0:"
    INDEX 01 01:20:62
  TRACK 64 AUDIO
    TITLE "20:cjc171_15432"
    INDEX 01 01:21:24
  TRACK 65 AUDIO
    TITLE "0:"
    INDEX 01 01:23:74
  TRACK 66 AUDIO
    TITLE "21:cjc171_15433"
    INDEX 01 01:24:74
  TRACK 67 AUDIO
    TITLE "0:"
    INDEX 01 01:26:65
  TRACK 68 AUDIO
    TITLE "22:cjc171_15434"
    INDEX 01 01:27:25
  TRACK 69 AUDIO
    TITLE "0:"
    INDEX 01 01:29:42
  TRACK 70 AUDIO
    TITLE "23:cjc171_15435"
    INDEX 01 01:29:63
  TRACK 71 AUDIO
    TITLE "0:"
    INDEX 01 01:32:03
  TRACK 72 AUDIO
    TITLE "19:cjc171_15436"
    INDEX 01 01:32:75
  TRACK 73 AUDIO
    TITLE "0:"
    INDEX 01 01:34:13
  TRACK 74 AUDIO
    TITLE "20:cjc171_15437"
    INDEX 01 01:34:49
  TRACK 75 AUDIO
    TITLE "0:"
    INDEX 01 01:37:23
  TRACK 76 AUDIO
    TITLE "21:cjc171_15438"
    INDEX 01 01:38:17
  TRACK 77 AUDIO
    TITLE "0:"
    INDEX 01 01:40:14
  TRACK 78 AUDIO
    TITLE "22:cjc171_15439"
    INDEX 01 01:40:49
  TRACK 79 AUDIO
    TITLE "0:"
    INDEX 01 01:42:25
  TRACK 80 AUDIO
    TITLE "23:cjc171_15440"
    INDEX 01 01:42:44
  TRACK 81 AUDIO
    TITLE "0:"
    INDEX 01 01:44:20
  TRACK 82 AUDIO
    TITLE "19:cjc171_15441"
    INDEX 01 01:45:19
  TRACK 83 AUDIO
    TITLE "0:"
    INDEX 01 01:46:22
  TRACK 84 AUDIO
    TITLE "20:cjc171_15442"
    INDEX 01 01:46:62
  TRACK 85 AUDIO
    TITLE "0:"
    INDEX 01 01:49:29
  TRACK 86 AUDIO
    TITLE "21:cjc171_15443"
    INDEX 01 01:50:28
  TRACK 87 AUDIO
    TITLE "0:"
    INDEX 01 01:52:05
  TRACK 88 AUDIO
    TITLE "22:cjc171_15444"
    INDEX 01 01:52:45
  TRACK 89 AUDIO
    TITLE "0:"
    INDEX 01 01:54:36
  TRACK 90 AUDIO
    TITLE "23:cjc171_15445"
    INDEX 01 01:54:65
  TRACK 91 AUDIO
    TITLE "0:"
    INDEX 01 01:56:56
  TRACK 92 AUDIO
    TITLE "19:cjc171_15446"
    INDEX 01 01:57:59
  TRACK 93 AUDIO
    TITLE "0:"
    INDEX 01 01:59:04
  TRACK 94 AUDIO
    TITLE "20:cjc171_15447"
    INDEX 01 01:59:39
  TRACK 95 AUDIO
    TITLE "0:"
    INDEX 01 02:02:10
  TRACK 96 AUDIO
    TITLE "21:cjc171_15448"
    INDEX 01 02:03:09
  TRACK 97 AUDIO
    TITLE "0:"
    INDEX 01 02:05:08
  TRACK 98 AUDIO
    TITLE "22:cjc171_15449"
    INDEX 01 02:05:47
  TRACK 99 AUDIO
    TITLE "0:"
    INDEX 01 02:07:46
  TRACK 100 AUDIO
    TITLE "23:cjc171_15450"
    INDEX 01 02:08:01
  TRACK 101 AUDIO
    TITLE "0:"
    INDEX 01 02:09:72
  TRACK 102 AUDIO
    TITLE "19:cjc171_15451"
    INDEX 01 02:10:72
  TRACK 103 AUDIO
    TITLE "0:"
    INDEX 01 02:12:14
  TRACK 104 AUDIO
    TITLE "20:cjc171_15452"
    INDEX 01 02:12:49
  TRACK 105 AUDIO
    TITLE "0:"
    INDEX 01 02:15:06
  TRACK 106 AUDIO
    TITLE "21:cjc171_15453"
    INDEX 01 02:16:08
  TRACK 107 AUDIO
    TITLE "0:"
    INDEX 01 02:18:60
  TRACK 108 AUDIO
    TITLE "22:cjc171_15454"
    INDEX 01 02:19:20
  TRACK 109 AUDIO
    TITLE "0:"
    INDEX 01 02:21:72
  TRACK 110 AUDIO
    TITLE "23:cjc171_15455"
    INDEX 01 02:22:16
  TRACK 111 AUDIO
    TITLE "0:"
    INDEX 01 02:24:68
  TRACK 112 AUDIO
    TITLE "19:cjc171_15456"
    INDEX 01 02:25:66
  TRACK 113 AUDIO
    TITLE "0:"
    INDEX 01 02:27:15
  TRACK 114 AUDIO
    TITLE "20:cjc171_15457"
    INDEX 01 02:27:53
  TRACK 115 AUDIO
    TITLE "0:"
    INDEX 01 02:29:65
  TRACK 116 AUDIO
    TITLE "21:cjc171_15458"
    INDEX 01 02:30:69
  TRACK 117 AUDIO
    TITLE "0:"
    INDEX 01 02:32:40
  TRACK 118 AUDIO
    TITLE "22:cjc171_15459"
    INDEX 01 02:32:75
  TRACK 119 AUDIO
    TITLE "0:"
    INDEX 01 02:34:66
  TRACK 120 AUDIO
    TITLE "23:cjc171_15460"
    INDEX 01 02:35:21
  TRACK 121 AUDIO
    TITLE "0:"
    INDEX 01 02:37:16
  TRACK 122 AUDIO
    TITLE "19:cjc171_15461"
    INDEX 01 02:38:19
  TRACK 123 AUDIO
    TITLE "0:"
    INDEX 01 02:39:34
  TRACK 124 AUDIO
    TITLE "20:cjc171_15462"
    INDEX 01 02:39:72
  TRACK 125 AUDIO
    TITLE "0:"
    INDEX 01 02:42:35
  TRACK 126 AUDIO
    TITLE "21:cjc171_15463"
    INDEX 01 02:43:34
  TRACK 127 AUDIO
    TITLE "0:"
    INDEX 01 02:45:15
  TRACK 128 AUDIO
    TITLE "22:cjc171_15464"
    INDEX 01 02:45:55
  TRACK 129 AUDIO
    TITLE "0:"
    INDEX 01 02:47:53
  TRACK 130 AUDIO
    TITLE "23:cjc171_15465"
    INDEX 01 02:48:06
  TRACK 131 AUDIO
    TITLE "0:"
    INDEX 01 02:50:05
  TRACK 132 AUDIO
    TITLE "19:cjc171_15466"
    INDEX 01 02:51:10
  TRACK 133 AUDIO
    TITLE "0:"
    INDEX 01 02:52:21
  TRACK 134 AUDIO
    TITLE "20:cjc171_15467"
    INDEX 01 02:52:62
  TRACK 135 AUDIO
    TITLE "0:"
    INDEX 01 02:54:69
  TRACK 136 AUDIO
    TITLE "21:cjc171_15468"
    INDEX 01 02:55:67
  TRACK 137 AUDIO
    TITLE "0:"
    INDEX 01 02:57:68
  TRACK 138 AUDIO
    TITLE "22:cjc171_15469"
    INDEX 01 02:58:30
  TRACK 139 AUDIO
    TITLE "0:"
    INDEX 01 03:00:29
  TRACK 140 AUDIO
    TITLE "23:cjc171_15470"
    INDEX 01 03:00:56
  TRACK 141 AUDIO
    TITLE "0:"
    INDEX 01 03:02:53
  TRACK 142 AUDIO
    TITLE "19:cjc171_15471"
    INDEX 01 03:03:52
  TRACK 143 AUDIO
    TITLE "0:"
    INDEX 01 03:04:73
  TRACK 144 AUDIO
    TITLE "20:cjc171_15472"
    INDEX 01 03:05:38
  TRACK 145 AUDIO
    TITLE "0:"
    INDEX 01 03:07:50
  TRACK 146 AUDIO
    TITLE "21:cjc171_15473"
    INDEX 01 03:08:44
  TRACK 147 AUDIO
    TITLE "0:"
    INDEX 01 03:10:09
  TRACK 148 AUDIO
    TITLE "22:cjc171_15474"
    INDEX 01 03:10:45
  TRACK 149 AUDIO
    TITLE "0:"
    INDEX 01 03:12:67
  TRACK 150 AUDIO
    TITLE "23:cjc171_15475"
    INDEX 01 03:13:14
  TRACK 151 AUDIO
    TITLE "0:"
    INDEX 01 03:15:36
  TRACK 152 AUDIO
    TITLE "19:cjc171_15476"
    INDEX 01 03:16:30
  TRACK 153 AUDIO
    TITLE "0:"
    INDEX 01 03:17:57
  TRACK 154 AUDIO
    TITLE "20:cjc171_15477"
    INDEX 01 03:18:17
  TRACK 155 AUDIO
    TITLE "0:"
    INDEX 01 03:20:57
  TRACK 156 AUDIO
    TITLE "21:cjc171_15478"
    INDEX 01 03:21:54
  TRACK 157 AUDIO
    TITLE "0:"
    INDEX 01 03:24:17
  TRACK 158 AUDIO
    TITLE "22:cjc171_15479"
    INDEX 01 03:24:49
  TRACK 159 AUDIO
    TITLE "0:"
    INDEX 01 03:26:71
  TRACK 160 AUDIO
    TITLE "23:cjc171_15480"
    INDEX 01 03:27:14
  TRACK 161 AUDIO
    TITLE "0:"
    INDEX 01 03:29:36
  TRACK 162 AUDIO
    TITLE "19:cjc171_15481"
    INDEX 01 03:30:36
  TRACK 163 AUDIO
    TITLE "0:"
    INDEX 01 03:31:37
  TRACK 164 AUDIO
    TITLE "20:cjc171_15482"
    INDEX 01 03:32:03
  TRACK 165 AUDIO
    TITLE "0:"
    INDEX 01 03:34:04
  TRACK 166 AUDIO
    TITLE "21:cjc171_15483"
    INDEX 01 03:35:03
  TRACK 167 AUDIO
    TITLE "0:"
    INDEX 01 03:36:36
  TRACK 168 AUDIO
    TITLE "22:cjc171_15484"
    INDEX 01 03:36:75
  TRACK 169 AUDIO
    TITLE "0:"
    INDEX 01 03:38:57
  TRACK 170 AUDIO
    TITLE "23:cjc171_15485"
    INDEX 01 03:39:13
  TRACK 171 AUDIO
    TITLE "0:"
    INDEX 01 03:40:69
  TRACK 172 AUDIO
    TITLE "19:cjc171_15486"
    INDEX 01 03:41:75
  TRACK 173 AUDIO
    TITLE "0:"
    INDEX 01 03:43:13
  TRACK 174 AUDIO
    TITLE "20:cjc171_15487"
    INDEX 01 03:43:52
  TRACK 175 AUDIO
    TITLE "0:"
    INDEX 01 03:44:75
  TRACK 176 AUDIO
    TITLE "21:cjc171_15488"
    INDEX 01 03:45:74
  TRACK 177 AUDIO
    TITLE "0:"
    INDEX 01 03:47:52
  TRACK 178 AUDIO
    TITLE "22:cjc171_15489"
    INDEX 01 03:48:16
  TRACK 179 AUDIO
    TITLE "0:"
    INDEX 01 03:49:74
  TRACK 180 AUDIO
    TITLE "23:cjc171_15490"
    INDEX 01 03:50:27
  TRACK 181 AUDIO
    TITLE "0:"
    INDEX 01 03:52:08
  TRACK 182 AUDIO
    TITLE "19:cjc171_15491"
    INDEX 01 03:53:07
  TRACK 183 AUDIO
    TITLE "0:"
    INDEX 01 03:54:19
  TRACK 184 AUDIO
    TITLE "20:cjc171_15492"
    INDEX 01 03:54:50
  TRACK 185 AUDIO
    TITLE "0:"
    INDEX 01 03:56:74
  TRACK 186 AUDIO
    TITLE "21:cjc171_15493"
    INDEX 01 03:57:74
  TRACK 187 AUDIO
    TITLE "0:"
    INDEX 01 03:59:67
  TRACK 188 AUDIO
    TITLE "22:cjc171_15494"
    INDEX 01 04:00:27
  TRACK 189 AUDIO
    TITLE "0:"
    INDEX 01 04:02:16
  TRACK 190 AUDIO
    TITLE "23:cjc171_15495"
    INDEX 01 04:02:40
  TRACK 191 AUDIO
    TITLE "0:"
    INDEX 01 04:04:29
  TRACK 192 AUDIO
    TITLE "19:cjc171_15496"
    INDEX 01 04:05:26
  TRACK 193 AUDIO
    TITLE "0:"
    INDEX 01 04:06:51
  TRACK 194 AUDIO
    TITLE "20:cjc171_15497"
    INDEX 01 04:07:03
  TRACK 195 AUDIO
    TITLE "0:"
    INDEX 01 04:10:41
  TRACK 196 AUDIO
    TITLE "21:cjc171_15498"
    INDEX 01 04:11:40
  TRACK 197 AUDIO
    TITLE "0:"
    INDEX 01 04:13:39
  TRACK 198 AUDIO
    TITLE "22:cjc171_15499"
    INDEX 01 04:13:75
  TRACK 199 AUDIO
    TITLE "0:"
    INDEX 01 04:16:01
  TRACK 200 AUDIO
    TITLE "23:cjc171_15500"
    INDEX 01 04:16:16
  TRACK 201 AUDIO
    TITLE "0:"
    INDEX 01 04:18:17
